Coordinates
version=1
nRows=17
nColumns=36
inDegrees=yes

Units are S.I. units (second, meters, Newtons, ...)
If the header above contains a line with 'inDegrees', this indicates whether rotational values are in degrees (yes) or radians (no).

endheader
time	pelvis_tilt	pelvis_list	pelvis_rotation	pelvis_tx	pelvis_ty	pelvis_tz	hip_flexion_r	hip_adduction_r	hip_rotation_r	knee_angle_r	knee_angle_r_beta	ankle_angle_r	subtalar_angle_r	mtp_angle_r	hip_flexion_l	hip_adduction_l	hip_rotation_l	knee_angle_l	knee_angle_l_beta	ankle_angle_l	subtalar_angle_l	mtp_angle_l	lumbar_extension	lumbar_bending	lumbar_rotation	arm_flex_r	arm_add_r	arm_rot_r	elbow_flex_r	pro_sup_r	arm_flex_l	arm_add_l	arm_rot_l	elbow_flex_l	pro_sup_l
      0.00000000	      3.45196579	      1.10224995	      2.20489725	     -0.18741215	      0.87567445	     -0.27284382	     23.84262245	     -3.82210141	      1.90771572	      4.82386921	      0.08419240	     10.39864015	     -3.79556847	     -5.66304014	    -20.46719418	     -0.19489987	     -8.50854046	     13.50128535	      0.23564188	     17.74522640	     10.13292023	     -5.66304014	    -16.47516560	     -0.88712040	    -11.46969532	      0.21687067	     -3.00859832	     -7.93419133	     22.28984719	     88.77704480	      9.74712965	     -9.89288866	     13.40289403	     25.41131564	     91.37600378
      0.01000000	      3.65635359	      1.10409677	      2.77461842	     -0.17345422	      0.87446948	     -0.27170805	     23.45957055	     -3.87039922	      2.18593245	      5.81361285	      0.10146669	     10.05743738	     -3.91087352	     -5.67195983	    -21.07374456	     -0.69471216	     -8.23097117	     14.41106324	      0.25152050	     17.18244708	     10.24502143	     -5.67195983	    -16.48286074	     -0.45100922	    -11.80258289	     -0.12707948	     -2.97971735	     -8.01524048	     22.04151324	     88.75320122	      9.45661332	     -9.64403760	     13.39836685	     25.17392086	     91.36064224
      0.02000000	      3.85540251	      1.09352403	      3.38165773	     -0.15950064	      0.87328620	     -0.27050997	     23.13203940	     -3.89703367	      2.16304507	      6.91406467	      0.12067319	      9.51589181	     -4.17699849	     -5.68201355	    -21.57690259	     -1.26299731	     -8.04104270	     15.47328704	      0.27005980	     16.44445279	     10.32639388	     -5.68201355	    -16.48783532	     -0.03757539	    -12.20562607	     -0.42352295	     -2.92013763	     -8.16949635	     21.70853469	     88.70348386	      9.17475599	     -9.40117981	     13.33452532	     24.85188272	     91.32845317
      0.03000000	      3.95288659	      1.07719193	      4.01912246	     -0.14524237	      0.87205412	     -0.26926210	     22.90626182	     -3.92466700	      1.60422122	      8.03753034	      0.14028137	      8.35859781	     -4.72604790	     -5.70144571	    -21.86772694	     -1.90019127	     -8.09748745	     16.68026130	      0.29112548	     15.47790403	     10.28809686	     -5.70144571	    -16.27328741	      0.38104488	    -12.62899088	     -0.71103795	     -2.83747883	     -8.48882980	     21.18294981	     88.59327772	      8.85192784	     -9.14732138	     13.13306346	     24.39996105	     91.26972624
      0.04000000	      4.09280306	      0.96790170	      4.47748328	     -0.13087865	      0.87091288	     -0.26760749	     22.56813075	     -3.71280036	      1.59666893	      9.06042820	      0.15813430	      7.25924546	     -4.90144459	     -5.71209753	    -22.26691913	     -2.51844204	     -7.80433715	     17.80215741	      0.31070626	     14.68654265	     10.26873304	     -5.71209753	    -16.14943154	      0.84977387	    -12.81328349	     -1.02639583	     -2.80467140	     -8.66664930	     20.83980374	     88.51820728	      8.48856104	     -8.87012664	     13.03383082	     24.16538785	     91.23673956
      0.05000000	      4.03634612	      0.80861773	      4.92684044	     -0.11632151	      0.86976655	     -0.26577479	     22.34818745	     -3.36992162	      1.64328532	      9.84166089	      0.17176939	      3.97746002	     -7.63264348	     -5.82347825	    -22.27004602	     -3.20419612	     -7.73964259	     19.19644138	      0.33504111	     13.30703132	      9.36958989	     -5.82347825	    -15.72801331	      1.32054168	    -13.00395371	     -1.28032962	     -2.69591561	     -9.43781310	     20.29896425	     88.01674107	      7.99689290	     -8.49944872	     12.07324268	     23.90792205	     91.11134009
      0.06000000	      4.14559172	      0.61252907	      5.27084389	     -0.10164378	      0.86896997	     -0.26377093	     22.11589485	     -3.01412964	      0.98988824	     11.04011205	      0.19268631	      2.40714814	     -7.84544262	     -5.84404342	    -22.38190825	     -3.92492199	     -7.80382890	     20.71144936	      0.36148298	     11.99662048	      8.98878377	     -5.84404342	    -15.52701566	      1.83212312	    -12.97428637	     -1.58343276	     -2.72063302	     -9.54089159	     19.87110000	     87.90731934	      7.58919859	     -8.24318266	     11.97109384	     23.72194915	     91.08286523
      0.07000000	      4.19327379	      0.33950452	      5.46832432	     -0.08697119	      0.86833794	     -0.26151887	     22.01316120	     -2.51301718	      0.50913343	     12.37710029	      0.21602115	      0.79467031	     -8.45384007	     -5.86597965	    -22.30996609	     -4.64860539	     -7.87389337	     22.40291979	      0.39100471	     10.36461355	      8.22043923	     -5.86597965	    -15.25946604	      2.37778182	    -12.80135474	     -1.78263627	     -2.76710003	     -9.62767602	     19.32427661	     87.77269575	      7.17515537	     -7.93420024	     11.79489128	     23.47669581	     91.02707783
      0.08000000	      4.07176836	      0.10018476	      5.47927213	     -0.07250816	      0.86786289	     -0.25901342	     22.09413310	     -1.90650394	      0.92956627	     13.75491128	      0.24006849	     -1.22817735	    -10.46802675	     -5.92766570	    -21.97428555	     -5.11053050	     -7.50211018	     24.14457476	      0.42140233	      8.05545768	      6.17480651	     -5.92766570	    -14.82468399	      2.82433091	    -12.52211646	     -1.84881893	     -2.87221100	     -9.49544242	     18.57068915	     87.46058862	      6.73219465	     -7.60184431	     11.25655556	     23.13412282	     90.86416388
      0.09000000	      4.20640442	     -0.32263894	      5.40244134	     -0.05811985	      0.86798797	     -0.25640549	     21.98508587	     -1.12890184	      0.79012634	     15.39668050	      0.26872277	     -1.89371055	    -11.29652446	     -5.95199932	    -21.71405796	     -5.89207795	     -7.85138818	     26.22522805	      0.45771658	      5.96860097	      5.11009268	     -5.95199932	    -14.72034515	      3.49042228	    -11.97501128	     -1.90825969	     -3.01266318	     -9.40093060	     18.02728004	     87.32579221	      6.39964177	     -7.28815007	     11.03936400	     22.93673495	     90.77833087
      0.10000000	      4.12308270	     -0.64616747	      5.14486641	     -0.04416791	      0.86830127	     -0.25359150	     22.11474740	     -0.36237406	      1.36921146	     17.09506862	      0.29836523	     -2.59212680	    -12.81307136	     -6.00233328	    -21.02771025	     -6.35193482	     -7.78713404	     28.51719189	      0.49771889	      2.96676263	      2.61772094	     -6.00233328	    -14.44907413	      3.95713282	    -11.33890181	     -1.79599964	     -3.19647865	     -8.96755293	     17.20928738	     87.09512105	      6.10449371	     -6.92028130	     10.52324200	     22.50304401	     90.55780505
      0.11000000	      4.22844369	     -1.09159109	      4.87220693	     -0.03059969	      0.86927179	     -0.25084287	     21.95304953	      0.52475980	      1.77708819	     18.69056469	      0.32621189	     -2.78256309	    -14.16612014	     -6.08568940	    -20.33763146	     -6.93151875	     -7.77263862	     31.04700084	      0.54187239	     -0.23397649	     -0.19803912	     -6.08568940	    -14.46599329	      4.58095861	    -10.63830625	     -1.52859908	     -3.42980034	     -8.02570477	     16.37340285	     86.76688877	      5.86154494	     -6.52551353	      9.92085948	     22.24260091	     90.25148402
      0.12000000	      4.31347127	     -1.71411063	      4.54139484	     -0.01728382	      0.87051143	     -0.24797952	     21.69960962	      1.58088853	      2.03668623	     20.09055331	      0.35064630	     -2.23942938	    -14.68419624	     -6.10811458	    -19.36717790	     -7.87267256	     -8.38363976	     34.02458092	      0.59384096	     -2.89447951	     -1.65100005	     -6.10811458	    -14.48517706	      5.37484578	     -9.74725265	     -1.26307952	     -3.62130907	     -7.81881612	     15.74246956	     86.65774557	      5.71155442	     -6.10823611	      9.66918427	     21.86188811	     90.12716294
      0.13000000	      4.35803379	     -2.10059900	      4.20531635	     -0.00457625	      0.87218823	     -0.24533861	     21.37235799	      2.35047501	      2.38234345	     21.29260253	      0.37162602	     -1.65539517	    -15.02884815	     -6.41644348	    -18.18774683	     -8.25764399	     -8.11692335	     36.99169965	      0.64562695	     -6.73908320	     -5.41624338	     -6.41644348	    -14.56912364	      5.86667592	     -9.08037511	     -0.62080588	     -4.01780599	     -4.99828735	     14.41589900	     85.31596397	      5.53658657	     -5.71700515	      8.67636537	     21.61579837	     89.49803240
      0.14000000	      4.35161326	     -2.60018459	      3.95426742	      0.00781460	      0.87406011	     -0.24282463	     20.88321513	      3.18014874	      2.54191658	     22.03619664	      0.38460419	     -0.92404973	    -15.16843754	     -6.45686650	    -16.70779467	     -8.89553077	     -8.03665723	     40.29730359	      0.70332063	     -9.73414770	     -8.09843879	     -6.45686650	    -14.62514201	      6.49816362	     -8.31110453	     -0.17253908	     -4.20731810	     -4.88944140	     13.86334713	     85.14251237	      5.56967752	     -5.33077497	      8.47404705	     20.98740638	     89.41295324
      0.15000000	      4.45821769	     -3.16764299	      3.86133666	      0.01996502	      0.87627395	     -0.24044772	     20.03961476	      4.03906384	      2.52907492	     22.33577554	      0.38983282	     -0.20767603	    -15.17280515	     -6.47331011	    -15.15939122	     -9.71070032	     -7.91720663	     43.74091395	      0.76342297	    -11.71403188	     -9.74944824	     -6.47331011	    -14.80335148	      7.19833546	     -7.64603413	      0.27090427	     -4.39884859	     -4.80776360	     13.44248553	     85.07239278	      5.54869409	     -5.02856977	      8.35359690	     20.60168164	     89.37214560
      0.16000000	      4.49011175	     -3.51383532	      3.89855928	      0.03172730	      0.87864776	     -0.23845495	     19.15160756	      4.58045646	      2.36583670	     22.36486410	      0.39034052	      0.47207736	    -15.00945583	     -6.49126745	    -13.37291205	    -10.15184396	     -7.33434622	     47.12958098	      0.82256636	    -13.56487852	    -11.95059766	     -6.49126745	    -14.90546345	      7.65958297	     -7.14284242	      0.77996035	     -4.57487238	     -4.65097518	     13.01880351	     85.00222188	      5.62211777	     -4.74154196	      8.23480374	     20.14397375	     89.33981101
